<?xml version="1.0" encoding="utf-8"?>
<!-- Derived from ProGenTeam docs/AI-logo.svg; use fill="currentColor" for theme-aware header. -->
<svg xmlns="http://www.w3.org/2000/svg" viewBox="-2693.5044 -1485.6029 2760.9639 2720.9631">
  <path fill="currentColor" d="M -1830.2 -1201.7 C -2114.6 -1044.8 -2347.8 -915.62 -2349 -914.4 C -2351.8 -911.5 -2694.9 189.131 -2693.5 191.311 C -2692.4 193.241 -1315.5 1234.63 -1312.8 1235.36 C -1311.1 1235.84 60.836 199.291 67.346 192.761 C 69.666 190.341 37.136 84.171 -101.8 -361.55 C -200.54 -677.64 -275.35 -913.92 -277.44 -915.62 C -281.63 -918.76 -1304.6 -1483.7 -1310 -1485.6 C -1312.1 -1486.3 -1536.7 -1363.8 -1830.2 -1201.7 Z M -850.63 -1066.5 L -391.06 -812.6 L -243.29 -339.06 C -161.97 -78.589 -95.524 134.711 -95.764 134.961 C -98.314 138.341 -1311.6 1054.45 -1312.8 1053.97 C -1314.1 1053.48 -2515.1 145.841 -2526.3 136.891 C -2528.8 134.961 -2497.9 33.861 -2381.5 -339.06 L -2233.5 -812.6 L -1774.6 -1066.3 C -1522.3 -1205.6 -1314.6 -1320 -1313 -1320 C -1311.6 -1320.2 -1103.4 -1206.1 -850.63 -1066.5 Z"/>
  <path fill="currentColor" d="M -1533.534 711.885 L -1688.428 594.182 L -1691 219.606 L -1681.849 -170.725 C -1681.849 -170.725 -1669.4 -363.13 -1718.7 -383.69 C -1764 -402.56 -1864.8 -351.72 -1897.4 -318.1 C -1924.1 -290.29 -1925.4 -182.08 -1925.4 -182.08 L -1967.9 239.674 C -1978.261 350.639 -1984.4 410.217 -1984.8 410.217 C -1986.9 410.217 -2327.8 176.191 -2330.1 173.771 C -2332.2 171.601 -2243.7 -152.39 -2166 -524.15 L -1867.5 -759.94 L -1855.7 -766.67 C -1585.4 -973.57 -1372 -1119.7 -1371.3 -1119.3 C -1370.8 -1118.5 -1370.6 -681.5 -1370.8 -148 L -1371.5 822.045 L -1533.534 711.885 Z"/>
  <path fill="currentColor" d="M -1242.6 -807.51 L -1242.6 -495.54 L -1126.4 -495.54 L -1010.2 -495.54 L -1010.2 -213.78 L -1010.2 67.961 L -1126.4 67.961 L -1242.6 67.961 L -1242.6 445.481 C -1242.6 684.915 -1241.7 822.525 -1240.3 822.045 C -1239.1 821.555 -1017.4 654.445 -747.7 450.321 C -397.56 185.501 -257.46 78.361 -258.39 75.951 C -259.09 74.011 -259.79 71.351 -259.79 70.141 C -259.79 68.931 -345.75 67.961 -474.7 67.961 L -689.61 67.961 L -689.61 -213.78 L -689.61 -495.54 L -564.15 -495.54 C -475.4 -495.54 -438.69 -496.25 -438.69 -498.19 C -438.69 -503.75 -504.21 -709.8 -506.76 -712.47 C -508.85 -714.64 -1186.6 -1089.7 -1231.4 -1113.7 L -1242.6 -1119.5 L -1242.6 -807.51 Z"/>
  <path fill="currentColor" d="M -1679.9 -97.817 L -1939.1 -47.43 C -1939.1 -47.43 -1957.531 69.128 -1949.714 69.128 L -1680.976 93.791 L -1679.9 -97.817 Z"/>
</svg>
